<svg version="1.1" id="Layer_1" xmlns="http://www.w3.org/2000/svg" xmlns:xlink="http://www.w3.org/1999/xlink" x="0px" y="0px"
	 width="100%" viewBox="0 0 496 496" enable-background="new 0 0 496 496" xml:space="preserve">
<path fill="#000000" opacity="1.000000" stroke="none" 
	d="
M175.358047,118.339516 
	C156.462326,121.570969 145.864853,133.200806 140.290070,150.410843 
	C136.880875,160.935455 135.061890,171.805054 134.620255,182.718369 
	C133.685516,205.817688 132.981735,228.991150 139.367386,251.629837 
	C141.027283,257.514526 143.816849,262.953247 146.883255,269.258148 
	C139.152573,269.258148 132.376755,269.340057 125.604637,269.217407 
	C122.935204,269.169037 121.751266,266.759003 120.355057,264.978088 
	C111.738541,253.987518 106.841301,241.349045 104.300705,227.744171 
	C100.160118,205.571487 100.964607,183.613800 108.950333,162.406082 
	C118.900322,135.981903 138.571442,120.843323 166.076599,115.776878 
	C184.134003,112.450699 202.149719,113.154915 219.951492,117.741524 
	C226.794540,119.504631 233.164658,122.365822 238.454712,127.202888 
	C243.727951,132.024597 246.261826,137.936584 244.913483,145.123138 
	C243.534363,152.473724 238.743378,156.654938 231.790024,158.677841 
	C231.310684,158.817276 230.843216,159.002853 230.358597,159.118011 
	C219.260941,161.755402 219.195969,161.603058 218.615952,150.312622 
	C218.290588,143.979523 216.989273,137.781082 214.227310,131.991730 
	C208.777237,120.567940 198.335770,118.155617 187.198761,117.412971 
	C183.432709,117.161850 179.595184,117.982857 175.358047,118.339516 
z"/>
<path fill="#000000" opacity="1.000000" stroke="none" 
	d="
M315.603027,215.848434 
	C315.174561,214.797150 314.817474,214.075302 314.017303,212.457672 
	C312.508728,216.562897 311.240051,219.895035 310.056549,223.257156 
	C305.196747,237.063034 300.389740,250.887558 295.489166,264.678894 
	C294.788330,266.651184 294.768646,269.596802 291.278931,268.954987 
	C289.902313,266.777313 291.300354,264.976410 291.926453,263.205536 
	C299.797852,240.942993 307.823181,218.734375 315.576233,196.431000 
	C316.821533,192.848602 318.486115,191.488861 322.320587,191.546738 
	C333.852417,191.720840 333.883820,191.556030 337.941467,202.289917 
	C345.761047,222.975342 353.547913,243.673126 361.334229,264.371094 
	C361.847717,265.736145 362.778961,267.064728 361.696045,269.205261 
	C353.237579,269.205261 344.470093,269.265015 335.704407,269.165039 
	C333.385406,269.138611 333.024902,266.944397 332.427063,265.264587 
	C326.629822,248.975266 320.474396,232.807571 315.603027,215.848434 
z"/>
<path fill="#000000" opacity="1.000000" stroke="none" 
	d="
M213.773941,239.004974 
	C213.764114,235.010147 213.804352,231.513062 213.734833,228.018143 
	C213.565933,219.525589 209.630951,214.999222 201.242966,213.127441 
	C198.875504,212.599136 196.257156,212.885941 194.116745,211.395630 
	C194.035263,208.335068 196.304565,208.802765 197.967239,208.798035 
	C217.612183,208.742157 237.257339,208.741272 256.902374,208.768997 
	C258.462280,208.771194 260.374695,208.437149 260.787079,210.760422 
	C260.405182,212.349396 259.116425,212.173416 258.003693,212.355438 
	C247.074219,214.143509 243.463211,218.241074 243.367859,229.347000 
	C243.267807,241.000092 243.204224,252.657181 243.414825,264.307251 
	C243.487228,268.312378 242.038132,269.547028 238.184296,269.406128 
	C231.700089,269.168945 225.196548,269.200287 218.709656,269.398102 
	C215.043274,269.509888 213.653229,268.145844 213.723892,264.475403 
	C213.884109,256.154266 213.774170,247.827927 213.773941,239.004974 
z"/>
<path fill="#000000" opacity="1.000000" stroke="none" 
	d="
M384.108704,324.989990 
	C387.311554,333.437988 390.230530,341.579407 393.496185,349.579346 
	C396.225891,356.266327 399.737915,362.305817 408.461487,361.889679 
	C409.558441,361.837372 410.312073,362.531403 410.514526,363.683167 
	C407.725342,365.736023 345.991180,366.306519 340.259796,364.313080 
	C340.011292,361.697174 341.997253,361.923279 343.565216,361.854370 
	C346.555939,361.722931 349.556885,361.820007 352.547211,361.683441 
	C360.483978,361.320862 364.028809,356.845551 362.310242,349.080811 
	C360.435944,340.612518 356.912354,332.674530 354.026520,324.532623 
	C353.265930,322.386719 352.181671,320.307495 352.256561,317.405762 
	C357.326080,316.454559 362.282379,317.025360 367.187195,316.890778 
	C369.182343,316.836029 371.180328,316.884705 373.177032,316.887573 
	C381.204468,316.899078 381.204468,316.899261 384.108704,324.989990 
z"/>
<path fill="#000000" opacity="1.000000" stroke="none" 
	d="
M289.109833,303.651917 
	C286.254425,304.516479 283.790741,304.807220 281.808868,302.638214 
	C280.332886,301.022858 278.867798,301.686157 277.295166,302.417511 
	C273.877838,304.006744 270.438934,305.033752 266.801971,302.892426 
	C266.172699,302.521912 265.077087,302.382690 264.440521,302.672241 
	C258.287994,305.470917 252.435944,304.148773 246.733887,301.424561 
	C244.052139,300.143341 244.168579,303.306580 242.744629,303.771698 
	C240.827469,303.294617 240.823792,301.489532 239.968979,300.345886 
	C237.675888,297.277893 234.807571,297.078033 232.105820,299.758423 
	C225.159882,306.649445 210.017532,302.575104 206.856995,292.964691 
	C205.700790,289.448975 207.446854,287.372803 211.672028,287.743164 
	C217.344971,288.240417 222.804718,289.868256 228.025360,292.065521 
	C231.833206,293.668182 233.619736,292.588593 235.213257,288.885468 
	C236.949219,284.851318 237.451355,280.243774 240.270599,276.607391 
	C242.761475,277.747925 242.151550,279.797791 242.207825,281.485138 
	C242.346619,285.647217 242.387543,289.815338 242.343536,293.979736 
	C242.312347,296.930328 244.080750,298.793610 246.548065,298.376801 
	C249.445816,297.887207 252.372726,299.365479 255.005386,297.509827 
	C256.685211,302.831482 257.866211,303.343048 262.351013,300.467529 
	C265.378723,298.526245 268.167358,296.212219 271.137024,294.009979 
	C272.832672,296.231232 271.831512,299.973694 275.076111,300.136597 
	C277.158966,300.241150 279.115570,298.847961 279.406647,296.441467 
	C278.043488,294.048157 275.276520,296.246246 273.982117,294.326172 
	C273.872742,292.826874 274.986542,292.723816 275.960876,292.731537 
	C278.716949,292.753296 280.183624,291.505707 280.873840,288.787720 
	C281.321075,287.026428 281.560669,284.171204 284.302368,284.776062 
	C286.854279,285.339081 285.481354,287.756744 285.455933,289.460175 
	C285.448822,289.936523 285.648438,290.415924 285.722839,290.755280 
	C287.253113,292.546234 289.861237,290.704041 291.257263,292.712006 
	C290.539337,294.999481 288.555023,294.183899 287.090271,294.278625 
	C285.036865,294.411438 283.570892,295.096436 282.895264,297.135406 
	C282.343933,298.799225 282.919067,300.150208 284.214081,301.094849 
	C285.962463,302.370239 287.626190,301.449768 289.365021,300.733917 
	C292.343262,299.507843 292.129700,295.955475 294.568939,293.887939 
	C296.850800,296.298920 300.657806,297.059418 300.739471,301.280792 
	C306.392029,301.631744 310.044281,297.424438 314.550171,296.082703 
	C316.683105,297.118988 316.024933,299.590515 317.598389,300.728912 
	C319.323151,301.976807 321.025116,301.729523 322.787231,300.952423 
	C324.842438,300.046021 326.670135,298.959747 326.663849,296.309540 
	C326.656250,293.109711 327.285156,290.023987 328.532318,287.081604 
	C329.069122,285.815216 329.873444,284.578247 331.460358,284.856659 
	C333.451721,285.205994 333.329193,286.918884 333.285980,288.420807 
	C333.207306,291.154785 331.924164,293.553253 331.007446,296.040985 
	C330.288025,297.993195 329.558075,299.913513 331.438202,301.549713 
	C333.458618,303.307983 335.150269,301.548401 336.911285,300.823914 
	C339.496063,299.760590 340.494873,297.182251 341.886810,295.008362 
	C342.430756,295.442047 342.828094,295.593719 342.886414,295.829315 
	C344.781342,303.486267 345.256256,303.646362 351.879456,299.255646 
	C353.780640,297.995300 355.509521,296.291077 357.984100,296.178589 
	C361.199646,301.693390 361.199646,301.693390 370.942535,299.191254 
	C369.403259,303.102020 365.124664,304.947083 360.754242,303.946991 
	C356.822906,303.047363 352.709290,304.168793 348.838562,303.698883 
	C342.010315,302.869873 335.103394,305.714935 328.391052,302.980072 
	C327.666321,302.684784 326.659058,302.395996 326.025391,302.668427 
	C317.879608,306.170288 309.309448,301.600891 301.108582,304.009827 
	C300.438538,304.206665 299.179352,303.881561 298.802307,303.359558 
	C295.573364,298.889252 292.544647,301.940552 289.109833,303.651917 
M222.056549,301.423767 
	C223.367661,301.400085 224.761948,301.653198 225.970993,301.289886 
	C227.933990,300.700012 229.739426,299.413330 230.012817,297.279541 
	C230.338547,294.737152 227.872681,294.694580 226.273849,294.144470 
	C222.983536,293.012421 219.639801,292.029724 216.296661,291.059265 
	C214.094940,290.420135 211.821259,289.600159 209.519958,292.045929 
	C212.193909,296.750366 216.570862,299.207947 222.056549,301.423767 
M237.818924,295.336700 
	C241.717514,293.210327 238.722885,290.185944 238.883011,287.559631 
	C238.320709,290.070587 234.896927,291.954254 237.818924,295.336700 
z"/>
<path fill="#000000" opacity="1.000000" stroke="none" 
	d="
M240.247894,361.753723 
	C253.270309,361.734619 257.375122,359.105377 262.042145,347.216797 
	C265.441040,338.558533 268.406708,329.729675 271.532074,320.964935 
	C272.209808,319.064240 272.739838,317.107391 275.335968,317.283691 
	C277.092773,319.404327 275.622345,321.259277 275.043182,323.012909 
	C272.542114,330.585968 269.608032,338.025085 267.340515,345.664001 
	C264.393311,355.592651 268.404022,361.017242 278.808380,361.620056 
	C283.120392,361.869873 287.456909,361.670532 291.780365,361.764313 
	C293.348389,361.798340 295.263306,361.456146 295.742340,364.614075 
	C275.856445,364.614075 256.113434,364.614075 236.300781,364.614075 
	C236.294708,361.638763 238.228790,361.960754 240.247894,361.753723 
z"/>
<path fill="#000000" opacity="1.000000" stroke="none" 
	d="
M147.032730,297.969879 
	C146.234177,299.231262 145.427597,300.487640 144.638885,301.755157 
	C143.381882,303.775238 142.024292,306.142151 139.234329,304.863434 
	C136.374725,303.552795 138.189682,301.194611 138.740158,299.241272 
	C129.950378,297.088898 128.082504,291.294647 133.940140,284.262512 
	C136.204987,281.543549 138.882385,279.401855 142.452774,278.453705 
	C144.767075,277.839081 146.723434,277.891357 148.311920,279.840729 
	C149.876221,281.760376 149.676514,283.777771 148.703583,285.918427 
	C147.496582,288.574066 145.451584,290.515045 142.870209,292.775482 
	C140.200958,293.019012 139.156479,292.355103 141.163742,290.600494 
	C142.778214,289.189270 144.627731,288.050354 145.681366,286.087311 
	C146.486435,284.587463 147.203537,282.997864 146.016617,281.452026 
	C144.646591,279.667755 143.044724,280.771790 141.545486,281.392670 
	C139.507538,282.236725 137.841614,283.635468 136.510696,285.322296 
	C134.369415,288.036224 131.386429,291.353668 134.197800,294.490662 
	C136.865051,297.466858 140.252609,294.878387 142.996765,292.981842 
	C145.885574,291.301361 148.030533,293.103638 150.298447,294.314697 
	C150.075546,296.288849 148.195816,296.430176 147.184036,297.786926 
	C147.000275,298.003021 147.032730,297.969879 147.032730,297.969879 
z"/>
<path fill="#000000" opacity="1.000000" stroke="none" 
	d="
M180.935364,292.319031 
	C180.481842,295.314240 178.197906,294.071991 176.614212,294.318512 
	C174.705933,294.615540 173.631332,295.591156 173.012924,297.294983 
	C172.492798,298.727997 172.917252,299.960876 173.966248,300.914520 
	C175.427063,302.242554 177.086258,301.861176 178.612640,301.040955 
	C179.925659,300.335358 181.128723,299.425842 182.384293,298.612457 
	C183.657074,297.787994 185.588562,296.516815 186.464890,297.488281 
	C190.480331,301.939636 194.644958,299.612183 199.065994,297.337341 
	C199.110214,300.703003 197.181168,301.424286 195.597153,301.810730 
	C191.366119,302.843079 187.187119,305.080475 182.639786,303.002777 
	C182.230774,302.815857 181.672867,302.872009 181.196899,302.926666 
	C171.470123,304.043304 171.470490,304.046539 169.111008,295.423187 
	C167.562607,293.871979 165.125198,296.715515 163.767471,294.387848 
	C163.671356,292.832367 164.770386,292.658325 165.753418,292.689941 
	C168.525787,292.779175 170.031769,291.498260 170.760361,288.847809 
	C171.260925,287.026825 171.515564,284.266083 174.133621,284.685577 
	C177.243622,285.183868 175.373672,287.825012 175.469849,289.598602 
	C175.495438,290.070221 175.727432,290.530670 175.932587,291.226715 
	C177.496460,291.492737 179.100250,291.765533 180.935364,292.319031 
z"/>
<path fill="#000000" opacity="1.000000" stroke="none" 
	d="
M146.984955,298.020447 
	C149.392609,297.046814 151.675751,296.474792 153.476196,299.239441 
	C154.610367,300.981018 156.226608,300.495728 157.895508,299.930695 
	C159.551361,299.370056 160.779816,297.614197 163.159073,298.185913 
	C163.334488,300.801666 161.170166,301.343079 159.518799,301.886627 
	C157.193558,302.651978 154.675888,302.815033 152.316635,303.498444 
	C147.954727,304.761932 146.416168,303.019531 146.979187,298.388000 
	C147.032730,297.969879 147.000275,298.003021 146.984955,298.020447 
z"/>
</svg>