<svg version="1.1" id="Layer_1" xmlns="http://www.w3.org/2000/svg" xmlns:xlink="http://www.w3.org/1999/xlink" x="0px" y="0px"
	 width="100%" viewBox="0 0 500 500" enable-background="new 0 0 500 500" xml:space="preserve">
<path fill="#8F6E5D" opacity="1.000000" stroke="none" 
	d="
M234.000000,501.000000 
	C156.000015,501.000000 78.500038,501.000000 1.000041,501.000000 
	C1.000028,334.333405 1.000028,167.666779 1.000014,1.000131 
	C167.666565,1.000087 334.333130,1.000087 500.999756,1.000044 
	C500.999847,167.666519 500.999847,334.333038 500.999939,500.999786 
	C412.166656,501.000000 323.333344,501.000000 234.000000,501.000000 
M317.572571,354.937866 
	C317.740173,354.649078 317.907745,354.360260 318.603424,353.675995 
	C318.434265,351.419067 318.265076,349.162109 317.953064,346.411163 
	C317.667450,346.240448 317.381866,346.069733 316.722809,345.355316 
	C314.466766,345.709991 310.961090,345.343323 310.243683,346.586151 
	C309.131012,348.513733 309.918762,351.538330 310.045990,354.592194 
	C310.333496,354.760162 310.621002,354.928131 311.259796,355.623444 
	C313.198120,355.440247 315.136444,355.257050 317.572571,354.937866 
M335.404327,345.618317 
	C334.698883,346.706390 333.993439,347.794495 332.966614,349.349884 
	C332.986359,350.235901 333.006104,351.121918 333.094208,352.718750 
	C334.074402,353.498169 335.054565,354.277618 336.010284,354.984650 
	C336.010284,354.984650 335.933929,354.981659 335.922913,355.672333 
	C337.189240,355.828705 338.862854,356.564484 339.636871,356.020447 
	C341.232056,354.899170 343.244232,353.193237 343.425415,351.545441 
	C343.637207,349.618866 342.535828,347.032928 341.115021,345.640106 
	C340.297546,344.838776 337.720490,345.832397 336.009766,346.015076 
	C336.009766,346.015076 336.030182,345.943665 335.404327,345.618317 
M203.342163,305.152130 
	C183.074570,308.076202 165.790588,301.721985 151.399002,287.640259 
	C136.782562,273.338470 130.111313,255.205322 128.589355,235.200378 
	C126.535408,208.202759 131.953461,183.238434 151.997299,163.567017 
	C186.671219,129.537384 240.734390,148.784470 248.906677,182.296646 
	C252.712448,182.222076 254.576920,179.945465 255.231430,176.526184 
	C256.301208,170.937363 255.132446,165.442261 251.141556,161.687744 
	C246.382919,157.210953 241.014328,152.944687 235.161697,150.159714 
	C222.959961,144.353500 209.652588,142.749115 196.222900,142.677368 
	C172.902832,142.552750 152.610138,150.216537 136.857422,167.668594 
	C116.374367,190.361298 111.566383,217.409286 117.655174,246.529648 
	C123.160454,272.859314 138.478302,291.962708 163.313583,302.784485 
	C182.242065,311.032410 201.931931,310.409302 221.701569,306.442383 
	C232.378693,304.299957 242.665802,301.081635 251.519150,294.350891 
	C255.168762,291.576263 257.076019,288.404694 256.993652,283.405579 
	C256.672607,263.911072 256.862640,244.408081 256.862640,224.908249 
	C256.862640,223.132980 256.862640,221.357712 256.862640,219.365356 
	C251.960037,219.365356 247.725616,219.365356 242.985992,219.365356 
	C242.985992,221.444672 242.986023,223.235168 242.986008,225.025665 
	C242.985870,240.025543 242.831329,255.027618 243.044174,270.024475 
	C243.169525,278.856842 239.776917,285.863617 233.293579,291.540771 
	C224.924133,298.869507 215.013672,302.942017 203.342163,305.152130 
M311.726624,255.558975 
	C326.747955,261.239624 338.192139,270.587524 343.900055,286.160095 
	C346.013245,291.925354 348.775116,297.461121 351.418152,303.017303 
	C351.978180,304.194580 353.244415,305.756042 354.298981,305.848907 
	C358.158783,306.188873 362.066620,305.983521 366.687347,305.983521 
	C364.861908,301.775208 363.450317,298.439758 361.975250,295.132568 
	C340.428040,246.822906 318.889832,198.509171 297.246674,150.242493 
	C296.481995,148.537125 294.823761,146.312790 293.291565,146.054779 
	C289.636475,145.439255 285.807465,145.856232 280.757507,145.856232 
	C285.970520,152.126755 282.828796,157.195038 281.373169,162.619904 
	C279.972839,167.838760 279.855713,173.401901 279.174744,178.813766 
	C279.553741,178.842606 279.932770,178.871460 280.311768,178.900299 
	C282.237823,173.299149 284.163849,167.697998 286.089874,162.096832 
	C286.910339,162.078079 287.730804,162.059311 288.551239,162.040543 
	C303.300201,195.069946 318.049133,228.099335 332.798096,261.128723 
	C332.328308,261.459503 331.858490,261.790283 331.388702,262.121063 
	C329.443817,260.691986 327.498779,259.263092 325.554077,257.833740 
	C314.186859,249.478897 301.745300,243.879547 287.448456,243.193130 
	C279.317535,242.802750 278.189880,244.362762 280.633667,252.571640 
	C290.952393,250.674103 301.088226,251.796783 311.726624,255.558975 
M134.542068,355.787689 
	C141.545029,356.300110 142.757278,353.544342 139.156372,344.843475 
	C137.518845,344.946625 135.809464,345.054321 134.091080,345.162567 
	C134.091080,348.797607 134.091080,351.916565 134.542068,355.787689 
M292.989685,354.672638 
	C293.138062,354.935425 293.258575,355.221130 293.447510,355.450500 
	C293.532135,355.553253 293.753845,355.543121 293.913330,355.584229 
	C293.805145,352.327148 294.361267,348.815704 293.259705,345.939026 
	C292.822968,344.798462 288.706146,345.067139 286.153198,344.677124 
	C286.153198,348.801880 286.153198,352.021149 286.153198,355.082336 
	C287.310394,353.767792 288.267975,352.156860 289.683655,351.369080 
	C290.149292,351.109985 291.800812,352.982056 292.989685,354.672638 
M159.440887,351.018799 
	C160.644241,350.938995 161.847595,350.859161 163.020172,350.781372 
	C161.271225,349.691010 159.694855,348.708221 158.118484,347.725433 
	C159.742477,346.889984 161.366470,346.054535 163.256546,345.082214 
	C161.100845,345.082214 159.170654,345.082214 156.957764,345.082214 
	C156.957764,348.723877 156.957764,352.145172 156.957764,355.754059 
	C159.295731,355.754059 161.488892,355.754059 163.782913,355.754059 
	C162.709335,353.238922 156.345230,357.330780 159.440887,351.018799 
M201.868912,347.305176 
	C201.872757,348.964996 201.353699,350.884644 202.015839,352.217407 
	C202.802795,353.801422 204.587250,355.878662 205.972351,355.903381 
	C207.408005,355.929108 209.618271,354.013458 210.160431,352.477600 
	C210.888412,350.415436 210.340820,347.902985 210.340820,345.583801 
	C209.877670,345.600037 209.414505,345.616241 208.951355,345.632477 
	C208.951355,347.717163 209.247345,349.862640 208.836761,351.863037 
	C208.602554,353.004059 207.215927,353.908569 206.348236,354.919586 
	C205.307281,353.910187 203.798523,353.073334 203.346054,351.846832 
	C202.803452,350.376068 203.192276,348.570801 203.077652,346.917297 
	C203.067383,346.769104 202.323151,346.671783 201.868912,347.305176 
M247.754120,348.260498 
	C248.745361,350.698730 249.736588,353.136963 250.710388,355.532349 
	C252.111176,352.087219 253.517624,348.628143 254.924072,345.169067 
	C254.739548,345.047607 254.555023,344.926117 254.370499,344.804657 
	C253.180984,346.214905 251.991470,347.625183 250.735794,349.113922 
	C249.394836,347.548706 248.214172,346.170593 247.033508,344.792450 
	C246.749588,344.963684 246.465668,345.134918 246.181747,345.306122 
	C246.575378,346.108276 246.969025,346.910461 247.754120,348.260498 
z"/>
<path fill="#F7F2F1" opacity="1.000000" stroke="none" 
	d="
M203.770081,305.090393 
	C215.013672,302.942017 224.924133,298.869507 233.293579,291.540771 
	C239.776917,285.863617 243.169525,278.856842 243.044174,270.024475 
	C242.831329,255.027618 242.985870,240.025543 242.986008,225.025665 
	C242.986023,223.235168 242.985992,221.444672 242.985992,219.365356 
	C247.725616,219.365356 251.960037,219.365356 256.862640,219.365356 
	C256.862640,221.357712 256.862640,223.132980 256.862640,224.908249 
	C256.862640,244.408081 256.672607,263.911072 256.993652,283.405579 
	C257.076019,288.404694 255.168762,291.576263 251.519150,294.350891 
	C242.665802,301.081635 232.378693,304.299957 221.701569,306.442383 
	C201.931931,310.409302 182.242065,311.032410 163.313583,302.784485 
	C138.478302,291.962708 123.160454,272.859314 117.655174,246.529648 
	C111.566383,217.409286 116.374367,190.361298 136.857422,167.668594 
	C152.610138,150.216537 172.902832,142.552750 196.222900,142.677368 
	C209.652588,142.749115 222.959961,144.353500 235.161697,150.159714 
	C241.014328,152.944687 246.382919,157.210953 251.141556,161.687744 
	C255.132446,165.442261 256.301208,170.937363 255.231430,176.526184 
	C254.576920,179.945465 252.712448,182.222076 248.906677,182.296646 
	C240.734390,148.784470 186.671219,129.537384 151.997299,163.567017 
	C131.953461,183.238434 126.535408,208.202759 128.589355,235.200378 
	C130.111313,255.205322 136.782562,273.338470 151.399002,287.640259 
	C165.790588,301.721985 183.074570,308.076202 203.770081,305.090393 
z"/>
<path fill="#F8F3F2" opacity="1.000000" stroke="none" 
	d="
M311.361237,255.408981 
	C301.088226,251.796783 290.952393,250.674103 280.633667,252.571640 
	C278.189880,244.362762 279.317535,242.802750 287.448456,243.193130 
	C301.745300,243.879547 314.186859,249.478897 325.554077,257.833740 
	C327.498779,259.263092 329.443817,260.691986 331.388702,262.121063 
	C331.858490,261.790283 332.328308,261.459503 332.798096,261.128723 
	C318.049133,228.099335 303.300201,195.069946 288.551239,162.040543 
	C287.730804,162.059311 286.910339,162.078079 286.089874,162.096832 
	C284.163849,167.697998 282.237823,173.299149 280.311768,178.900299 
	C279.932770,178.871460 279.553741,178.842606 279.174744,178.813766 
	C279.855713,173.401901 279.972839,167.838760 281.373169,162.619904 
	C282.828796,157.195038 285.970520,152.126755 280.757507,145.856232 
	C285.807465,145.856232 289.636475,145.439255 293.291565,146.054779 
	C294.823761,146.312790 296.481995,148.537125 297.246674,150.242493 
	C318.889832,198.509171 340.428040,246.822906 361.975250,295.132568 
	C363.450317,298.439758 364.861908,301.775208 366.687347,305.983521 
	C362.066620,305.983521 358.158783,306.188873 354.298981,305.848907 
	C353.244415,305.756042 351.978180,304.194580 351.418152,303.017303 
	C348.775116,297.461121 346.013245,291.925354 343.900055,286.160095 
	C338.192139,270.587524 326.747955,261.239624 311.361237,255.408981 
z"/>
<path fill="#F3EDEB" opacity="1.000000" stroke="none" 
	d="
M134.316574,355.411621 
	C134.091080,351.916565 134.091080,348.797607 134.091080,345.162567 
	C135.809464,345.054321 137.518845,344.946625 139.156372,344.843475 
	C142.757278,353.544342 141.545029,356.300110 134.316574,355.411621 
z"/>
<path fill="#F4EFED" opacity="1.000000" stroke="none" 
	d="
M292.949890,354.276123 
	C291.800812,352.982056 290.149292,351.109985 289.683655,351.369080 
	C288.267975,352.156860 287.310394,353.767792 286.153198,355.082336 
	C286.153198,352.021149 286.153198,348.801880 286.153198,344.677124 
	C288.706146,345.067139 292.822968,344.798462 293.259705,345.939026 
	C294.361267,348.815704 293.805145,352.327148 293.913330,355.584229 
	C293.753845,355.543121 293.532135,355.553253 293.447510,355.450500 
	C293.258575,355.221130 293.138062,354.935425 292.949890,354.276123 
z"/>
<path fill="#937363" opacity="1.000000" stroke="none" 
	d="
M333.025879,352.007935 
	C333.006104,351.121918 332.986359,350.235901 333.432556,349.057617 
	C334.609070,347.824799 335.319611,346.884216 336.030182,345.943665 
	C336.030182,345.943665 336.009766,346.015076 336.369537,346.076294 
	C339.938049,345.762543 341.893005,347.003113 341.974030,350.400696 
	C342.075317,354.648315 339.143555,355.029175 335.933929,354.981659 
	C335.933929,354.981659 336.010284,354.984650 335.980896,354.686493 
	C334.976288,353.594849 334.001099,352.801392 333.025879,352.007935 
z"/>
<path fill="#F6F2F0" opacity="1.000000" stroke="none" 
	d="
M159.046951,351.119873 
	C156.345230,357.330780 162.709335,353.238922 163.782913,355.754059 
	C161.488892,355.754059 159.295731,355.754059 156.957764,355.754059 
	C156.957764,352.145172 156.957764,348.723877 156.957764,345.082214 
	C159.170654,345.082214 161.100845,345.082214 163.256546,345.082214 
	C161.366470,346.054535 159.742477,346.889984 158.118484,347.725433 
	C159.694855,348.708221 161.271225,349.691010 163.020172,350.781372 
	C161.847595,350.859161 160.644241,350.938995 159.046951,351.119873 
z"/>
<path fill="#F5EFEE" opacity="1.000000" stroke="none" 
	d="
M201.894348,346.928009 
	C202.323151,346.671783 203.067383,346.769104 203.077652,346.917297 
	C203.192276,348.570801 202.803452,350.376068 203.346054,351.846832 
	C203.798523,353.073334 205.307281,353.910187 206.348236,354.919586 
	C207.215927,353.908569 208.602554,353.004059 208.836761,351.863037 
	C209.247345,349.862640 208.951355,347.717163 208.951355,345.632477 
	C209.414505,345.616241 209.877670,345.600037 210.340820,345.583801 
	C210.340820,347.902985 210.888412,350.415436 210.160431,352.477600 
	C209.618271,354.013458 207.408005,355.929108 205.972351,355.903381 
	C204.587250,355.878662 202.802795,353.801422 202.015839,352.217407 
	C201.353699,350.884644 201.872757,348.964996 201.894348,346.928009 
z"/>
<path fill="#E3D8D4" opacity="1.000000" stroke="none" 
	d="
M247.558395,347.986572 
	C246.969025,346.910461 246.575378,346.108276 246.181747,345.306122 
	C246.465668,345.134918 246.749588,344.963684 247.033508,344.792450 
	C248.214172,346.170593 249.394836,347.548706 250.735794,349.113922 
	C251.991470,347.625183 253.180984,346.214905 254.370499,344.804657 
	C254.555023,344.926117 254.739548,345.047607 254.924072,345.169067 
	C253.517624,348.628143 252.111176,352.087219 250.710388,355.532349 
	C249.736588,353.136963 248.745361,350.698730 247.558395,347.986572 
z"/>
<path fill="#E6DCD8" opacity="1.000000" stroke="none" 
	d="
M335.928406,355.326996 
	C339.143555,355.029175 342.075317,354.648315 341.974030,350.400696 
	C341.893005,347.003113 339.938049,345.762543 336.332397,346.077789 
	C337.720490,345.832397 340.297546,344.838776 341.115021,345.640106 
	C342.535828,347.032928 343.637207,349.618866 343.425415,351.545441 
	C343.244232,353.193237 341.232056,354.899170 339.636871,356.020447 
	C338.862854,356.564484 337.189240,355.828705 335.928406,355.326996 
z"/>
<path fill="#EFE8E5" opacity="1.000000" stroke="none" 
	d="
M309.900787,354.097839 
	C309.918762,351.538330 309.131012,348.513733 310.243683,346.586151 
	C310.961090,345.343323 314.466766,345.709991 316.741943,345.822723 
	C316.650055,346.421082 316.539032,346.552063 316.090454,346.515289 
	C310.448486,346.194580 309.503571,347.511627 310.502808,353.562805 
	C310.168030,353.859680 310.034424,353.978760 309.900787,354.097839 
z"/>
<path fill="#EFE8E5" opacity="1.000000" stroke="none" 
	d="
M318.095917,346.905182 
	C318.265076,349.162109 318.434265,351.419067 318.135742,353.702820 
	C317.531708,353.616394 317.395355,353.503174 317.382477,353.040039 
	C317.428101,351.005890 317.350281,349.321594 317.478760,347.454773 
	C317.822021,347.149841 317.958984,347.027496 318.095917,346.905182 
z"/>
<path fill="#EFE8E5" opacity="1.000000" stroke="none" 
	d="
M317.074768,355.073853 
	C315.136444,355.257050 313.198120,355.440247 311.248169,355.168396 
	C311.345337,354.585297 311.454163,354.457245 311.889404,354.482635 
	C313.608521,354.536469 315.001190,354.436890 316.563660,354.521790 
	C316.847260,354.828827 316.961029,354.951324 317.074768,355.073853 
z"/>
<path fill="#E6DCD8" opacity="1.000000" stroke="none" 
	d="
M335.717255,345.781006 
	C335.319611,346.884216 334.609070,347.824799 333.593262,348.823975 
	C333.993439,347.794495 334.698883,346.706390 335.717255,345.781006 
z"/>
<path fill="#E6DCD8" opacity="1.000000" stroke="none" 
	d="
M333.060059,352.363342 
	C334.001099,352.801392 334.976288,353.594849 335.993134,354.722687 
	C335.054565,354.277618 334.074402,353.498169 333.060059,352.363342 
z"/>
<path fill="#EFE8E5" opacity="1.000000" stroke="none" 
	d="
M316.928650,346.094574 
	C317.381866,346.069733 317.667450,346.240448 318.024475,346.658173 
	C317.958984,347.027496 317.822021,347.149841 317.325989,347.306610 
	C316.770233,347.135651 316.590576,346.916321 316.427979,346.683014 
	C316.539032,346.552063 316.650055,346.421082 316.928650,346.094574 
z"/>
<path fill="#EFE8E5" opacity="1.000000" stroke="none" 
	d="
M311.072510,354.904724 
	C310.621002,354.928131 310.333496,354.760162 309.973389,354.345032 
	C310.034424,353.978760 310.168030,353.859680 310.657623,353.709290 
	C311.213013,353.881317 311.396149,354.098389 311.562958,354.329193 
	C311.454163,354.457245 311.345337,354.585297 311.072510,354.904724 
z"/>
<path fill="#EFE8E5" opacity="1.000000" stroke="none" 
	d="
M317.871704,353.900574 
	C317.907745,354.360260 317.740173,354.649078 317.323669,355.005859 
	C316.961029,354.951324 316.847260,354.828827 316.695251,354.352722 
	C316.844055,353.782623 317.044739,353.579559 317.259003,353.389954 
	C317.395355,353.503174 317.531708,353.616394 317.871704,353.900574 
z"/>
<path fill="#947464" opacity="1.000000" stroke="none" 
	d="
M317.382477,353.040039 
	C317.044739,353.579559 316.844055,353.782623 316.525391,354.168213 
	C315.001190,354.436890 313.608521,354.536469 311.889404,354.482635 
	C311.396149,354.098389 311.213013,353.881317 310.858765,353.531494 
	C309.503571,347.511627 310.448486,346.194580 316.090454,346.515289 
	C316.590576,346.916321 316.770233,347.135651 317.119690,347.489166 
	C317.350281,349.321594 317.428101,351.005890 317.382477,353.040039 
z"/>
</svg>